<svg width="1280" height="211" viewBox="0 0 1280 211" fill="none" xmlns="http://www.w3.org/2000/svg">
<path d="M-6 5C114.5 -2 406.4 -4.5 562 41.5C627.138 60.7566 694.898 87.7532 756.5 115.52C791.167 69.0136 883.1 0.0999985 973.5 96.5C1036 41.5 1091 14.5 1134.5 55.5C1169.3 88.3 1178 117.5 1178 128C1199 105.333 1249.1 62 1281.5 70V217H954H-6V5Z" fill="white"/>
<path d="M954 217H-6V5C114.5 -2 406.4 -4.5 562 41.5C627.138 60.7566 694.898 87.7532 756.5 115.52M954 217C915.726 194.132 842.052 154.083 756.5 115.52M954 217H1281.5C1281.5 197.667 1281.5 141.2 1281.5 70C1249.1 62 1199 105.333 1178 128C1178 117.5 1169.3 88.3 1134.5 55.5C1091 14.5 1036 41.5 973.5 96.5C883.1 0.0999985 791.167 69.0136 756.5 115.52" stroke="black"/>
</svg>
